<?xml version="1.0" encoding="utf-8"?>
<!-- Generator: Adobe Illustrator 19.0.0, SVG Export Plug-In . SVG Version: 6.00 Build 0)  -->
<svg version="1.1" id="Layer_1" xmlns="http://www.w3.org/2000/svg" xmlns:xlink="http://www.w3.org/1999/xlink" x="0px" y="0px"
	 viewBox="0 0 100 32.7" style="enable-background:new 0 0 100 32.7;" xml:space="preserve">
<style>
  #XMLID_57_ {
    fill: #000;
  }
</style>
<g id="XMLID_57_">
	<g id="XMLID_58_">
		<path id="XMLID_29_" d="M48.4,5.8L48.4,5.8l3.2,0V3.2C51.6,1.4,49.8,0,47,0c-2.8,0-4.6,1.4-4.6,3.2v2.6c0,0,0,1.2,0.6,1.8
			c1.6,1.8,2.6,1.4,4.8,2.8c0.6,0.4,0.6,1.1,0.6,1.2v1.2c0,0.8-0.4,1.4-1.4,1.4c-1,0-1.4-0.6-1.4-1.4v-2h-3.2v2.8
			c0,1.8,1.8,3.2,4.6,3.2c2.8,0,4.6-1.4,4.6-3.2v-3c0,0,0-1.2-0.6-1.8c-1.6-1.6-3.4-1.6-4.8-2.6C45.6,5.8,45.6,5,45.6,5l0-1
			c0-0.8,0.4-1.4,1.4-1.4c1,0,1.4,0.6,1.4,1.4V5.8z"/>
		<path id="XMLID_28_" d="M60.5,5.8L60.5,5.8l3.2,0V3.2c0-1.8-1.8-3.2-4.6-3.2c-2.8,0-4.6,1.4-4.6,3.2v2.6c0,0,0,1.2,0.6,1.8
			c1.6,1.8,2.6,1.4,4.8,2.8c0.6,0.4,0.6,1.1,0.6,1.2v1.2c0,0.8-0.4,1.4-1.4,1.4c-1,0-1.4-0.6-1.4-1.4v-2h-3.2v2.8
			c0,1.8,1.8,3.2,4.6,3.2c2.8,0,4.6-1.4,4.6-3.2v-3c0,0,0-1.2-0.6-1.8c-1.6-1.6-3.4-1.6-4.8-2.6C57.7,5.8,57.7,5,57.7,5l0-1
			c0-0.8,0.4-1.4,1.4-1.4c1,0,1.4,0.6,1.4,1.4V5.8z"/>
		<rect id="XMLID_27_" x="66.5" y="0.4" width="3.2" height="16.1"/>
		<rect id="XMLID_26_" x="24.2" y="0.4" width="3.2" height="16.1"/>
		<polygon id="XMLID_25_" points="6,0.4 6,7.3 3.2,7.3 3.2,0.4 0,0.4 0,16.5 3.2,16.5 3.2,9.7 6,9.7 6,16.5 9.3,16.5 9.3,0.4 		"/>
		<path id="XMLID_83_" d="M39.5,10.9c0-1.1-0.7-2-1.7-2.4c1-0.4,1.7-1.3,1.7-2.4l0-3c-0.1-1.4-1.2-2.6-2.6-2.6h-6.7v16.1h3.2V9.7h2
			c0.4,0,0.8,0.4,0.8,0.8v6h3.2L39.5,10.9z M33.5,3h2c0.4,0,0.8,0.4,0.8,0.8v2.6c0,0.4-0.4,0.8-0.8,0.8h-2V3z"/>
		<path id="XMLID_80_" d="M21.4,3.2c0-1.8-1.8-3.2-4.6-3.2c-2.8,0-4.6,1.4-4.6,3.2v2.6l3.2,0v0V4c0-0.8,0.4-1.4,1.4-1.4
			c1,0,1.4,0.6,1.4,1.4l0,2.4c0,0-2.6,0.5-3.4,0.6c-1.4,0.2-2.6,1.2-2.6,2.6l0,3.8c0,0.1,0,0.5,0,0.6c0.2,1.6,1.6,2.6,3.3,2.6
			c1.1,0,2.1-0.4,2.7-1.2v1h3.2L21.4,3.2z M18.1,12.9c0,0.8-0.4,1.4-1.4,1.4c-1,0-1.4-0.6-1.4-1.4l0-2.4c0-0.6,0.4-0.8,1.4-1
			l1.4-0.3L18.1,12.9z"/>
		<path id="XMLID_77_" d="M95.4,0c-2.8,0-4.6,1.4-4.6,3.2v10.5c0,1.8,1.8,3.2,4.6,3.2c2.8,0,4.6-1.4,4.6-3.2v-2.8l-3.2,0v2
			c0,0.8-0.4,1.4-1.4,1.4c-1,0-1.4-0.6-1.4-1.4V9.7h6V9.5V3.2C100,1.4,98.2,0,95.4,0z M94,7.3V4c0-0.8,0.4-1.4,1.4-1.4
			c1,0,1.4,0.6,1.4,1.4v3.2H94z"/>
		<path id="XMLID_18_" d="M75.8,16.5l0-12.9c0-0.6,0.7-1,1.4-1c0.7,0,1.4,0.4,1.4,1l0,12.9h3.2l0-12.9c0-0.6,0.7-1,1.4-1
			c0.7,0,1.4,0.4,1.4,1l0,12.9h3.2l0-13.9c0-1.4-1.2-2.4-2.6-2.4c-1.1,0-2.4,0.2-3.7,1.3c-0.4-0.8-1.3-1.3-2.4-1.3
			c-0.9,0-2,0.2-3.4,1.1V0.4h-3.2l0,16.1H75.8z"/>
		<rect id="XMLID_17_" x="0" y="20.6" width="3.2" height="12.1"/>
		<rect id="XMLID_16_" x="6" y="20.6" width="3.2" height="12.1"/>
		<rect id="XMLID_15_" x="12.1" y="20.6" width="3.2" height="12.1"/>
		<rect id="XMLID_14_" x="18.1" y="20.6" width="3.2" height="12.1"/>
		<rect id="XMLID_13_" x="24.2" y="20.6" width="3.2" height="12.1"/>
		<rect id="XMLID_12_" x="30.2" y="20.6" width="3.2" height="12.1"/>
		<rect id="XMLID_11_" x="36.3" y="20.6" width="3.2" height="12.1"/>
		<rect id="XMLID_10_" x="42.3" y="20.6" width="3.2" height="12.1"/>
		<rect id="XMLID_9_" x="48.4" y="20.6" width="3.2" height="12.1"/>
		<rect id="XMLID_8_" x="54.4" y="20.6" width="3.2" height="12.1"/>
		<rect id="XMLID_7_" x="60.5" y="20.6" width="3.2" height="12.1"/>
		<rect id="XMLID_6_" x="66.5" y="20.6" width="3.2" height="12.1"/>
		<rect id="XMLID_5_" x="72.6" y="20.6" width="3.2" height="12.1"/>
		<rect id="XMLID_4_" x="78.6" y="20.6" width="3.2" height="12.1"/>
		<rect id="XMLID_3_" x="84.7" y="20.6" width="3.2" height="12.1"/>
		<rect id="XMLID_2_" x="90.7" y="20.6" width="3.2" height="12.1"/>
		<rect id="XMLID_1_" x="96.8" y="20.6" width="3.2" height="12.1"/>
	</g>
</g>
</svg>
