<?xml version="1.0" encoding="utf-8"?>
<!-- Generator: Adobe Illustrator 19.0.0, SVG Export Plug-In . SVG Version: 6.00 Build 0)  -->
<svg version="1.1" id="Layer_1" xmlns="http://www.w3.org/2000/svg" xmlns:xlink="http://www.w3.org/1999/xlink" x="0px" y="0px"
	 viewBox="0 0 60 104" style="enable-background:new 0 0 60 104;" xml:space="preserve">
<style>
  #XMLID_57_ {
    fill: #000;
  }
</style>
<g>
	<path id="XMLID_6_" d="M50.9,16.5L50.9,16.5l9.1,0V9.1c0-5-5.1-9.1-13-9.1c-7.9,0-13,4.1-13,9.1v7.4c0,0,0.1,3.3,1.7,5.1
		c4.5,5.1,7.4,3.8,13.6,7.9c1.6,1.1,1.7,3.1,1.7,3.4v3.4c0,2.2-1.1,4-4,4c-2.8,0-4-1.8-4-4v-5.7H34v7.9c0,5,5.1,9.1,13,9.1
		c7.9,0,13-4.1,13-9.1V30c0,0,0-3.4-1.7-5.1c-4.5-4.5-9.6-4.5-13.6-7.4C43,16.5,43,14.2,43,14.2l0-2.8c0-2.2,1.1-4,4-4
		c2.8,0,4,1.8,4,4V16.5z"/>
	<polygon id="XMLID_5_" points="17,1.2 17,20.4 9.1,20.4 9.1,1.2 0,1.2 0,46.5 9.1,46.5 9.1,27.2 17,27.2 17,46.5 26,46.5 26,1.2
		"/>
	<rect id="XMLID_4_" y="57.8" width="9.1" height="45.3"/>
	<rect id="XMLID_3_" x="17" y="57.8" width="9.1" height="45.3"/>
	<rect id="XMLID_2_" x="34" y="57.8" width="9.1" height="45.3"/>
	<rect id="XMLID_1_" x="50.9" y="57.8" width="9.1" height="45.3"/>
</g>
</svg>
